# Blender3D v249 OBJ File: deviveleCoin.blend
# www.blender3d.org
v -0.500000 -0.500000 -0.000296
v 0.500000 -0.500000 -0.000296
v -0.000000 -0.500000 -0.000296
v -0.500000 0.000000 -0.000296
v -0.500000 0.500000 -0.000296
v 0.500011 0.500074 -0.200296
v 0.500000 -0.400000 -0.000296
v -0.400000 0.500000 -0.000296
v 0.500065 0.000073 -0.200296
v 0.000028 0.500050 -0.200296
v 0.103405 -0.399385 -0.000296
v -0.398097 0.102773 -0.000296
v 0.248719 0.048732 -0.200296
v 0.047744 0.247467 -0.200296
v 0.499991 -0.300017 -0.099000
v -0.300011 0.499982 -0.099000
v -0.271904 0.176558 -0.099000
v 0.181567 -0.279454 -0.099000
vt 0.999784 0.999971
vt 0.531886 0.999220
vt 0.576785 0.756964
vt 0.763595 0.570737
vt 1.000000 0.522565
vt 0.000127 0.499903
vt 0.500061 -0.000005
vt 0.000027 0.000160
vt 0.687455 0.260596
vt 0.259758 0.682145
vt 0.604247 0.116164
vt 0.119495 0.590946
vt 0.219022 0.999066
vt 0.092628 0.999085
vt 1.000120 0.093726
vt 0.999536 0.218700
vt 0.000000 0.999408
vt 0.000134 0.499820
vt 0.500050 0.000005
vt 1.000158 0.000062
vn 0.000000 0.000000 -1.000000
vn 0.000000 0.000000 1.000000
vn -0.242897 -0.245634 -0.938438
vn -0.241965 -0.240616 -0.939977
vn -0.404948 -0.404419 -0.820038
vn -0.408607 -0.406330 -0.817274
vn -0.045320 -0.701823 -0.710908
vn -0.000985 -0.635088 -0.772439
vn -0.020648 -0.319748 -0.947277
vn -0.055015 -0.284182 -0.957191
vn -0.615023 -0.002946 -0.788504
vn -0.701221 -0.060939 -0.710335
vn -0.290550 -0.054889 -0.955284
vn -0.319741 -0.027787 -0.947097
usemtl Material
s off
f 6/1/1 9/2/1 13/3/1
f 6/1/1 13/3/1 14/4/1
f 6/1/1 14/4/1 10/5/1
f 1/6/2 3/7/2 4/8/2
f 17/9/3 14/4/3 13/3/3
f 17/9/4 13/3/4 18/10/4
f 12/11/5 17/9/5 11/12/5
f 17/9/6 18/10/6 11/12/6
f 15/13/7 7/14/7 18/10/7
f 7/14/8 11/12/8 18/10/8
f 9/2/9 15/13/9 18/10/9
f 9/2/10 18/10/10 13/3/10
f 17/9/11 12/11/11 8/15/11
f 17/9/12 8/15/12 16/16/12
f 14/4/13 17/9/13 10/5/13
f 17/9/14 16/16/14 10/5/14
f 2/17/1 3/18/1 11/12/1
f 2/17/1 11/12/1 7/14/1
f 4/19/1 5/20/1 12/11/1
f 5/20/1 8/15/1 12/11/1
f 11/12/1 3/18/1 12/11/1
f 3/18/1 4/19/1 12/11/1
