# Blender3D v249 OBJ File: city01.blend
# www.blender3d.org
v 0.500001 0.500010 0.000285
v 0.500001 -0.499995 0.000285
v -0.499998 -0.499998 0.000285
v -0.499999 0.500002 0.000285
v 0.314325 0.131585 0.002618
v -0.297739 0.131585 0.002618
v 0.314325 -0.337618 0.002618
v -0.297739 -0.337618 0.002619
v -0.499999 0.500002 0.143815
v -0.499998 -0.499998 0.143815
v 0.500001 -0.499995 0.143815
v 0.500001 0.500010 0.143815
v 0.450001 0.450009 0.143815
v 0.450001 -0.449995 0.143815
v -0.449998 -0.449998 0.143815
v -0.449999 0.450003 0.143815
v -0.100081 -0.449588 0.143815
v -0.100108 -0.500157 0.143815
v -0.100108 -0.500157 -0.000542
v 0.099770 -0.449789 0.143815
v 0.099804 -0.499984 0.143815
v 0.099780 -0.499984 -0.002178
v 0.099770 -0.449789 0.000285
v -0.100081 -0.449588 0.000285
v -0.449999 0.450003 0.000285
v -0.449998 -0.449998 0.000285
v 0.450001 -0.449995 0.000285
v 0.450001 0.450009 0.000285
v -0.499999 0.500002 0.000285
v -0.499998 -0.499998 0.000285
v 0.500001 -0.499995 0.000285
v 0.500001 0.500010 0.000285
v -0.297739 -0.337618 0.274062
v 0.314325 -0.337618 0.274062
v -0.297739 0.131585 0.274062
v 0.314325 0.131585 0.274062
v -0.377739 -0.337618 0.274062
v -0.377739 0.131585 0.274062
v -0.297739 -0.337618 0.562619
v -0.297739 0.131585 0.562618
v 0.314325 -0.337618 0.562618
v 0.314325 0.131585 0.562618
v -0.377739 0.131585 0.562618
v -0.377739 -0.337618 0.562619
v -0.203878 0.131585 0.767762
v -0.203878 -0.337618 0.767763
v -0.203878 0.131585 0.607762
v -0.203878 -0.337618 0.607763
v -0.004485 0.131585 0.767762
v -0.004485 -0.337618 0.767763
v -0.004485 0.131585 0.607762
v -0.004485 -0.337618 0.607763
v 0.194907 -0.337618 0.767763
v 0.194907 0.131585 0.767762
v 0.194907 -0.337618 0.607763
v 0.194907 0.131585 0.607762
v 0.394300 0.131585 0.767762
v 0.394299 -0.337618 0.767763
v 0.394325 -0.337618 0.562618
v 0.394325 0.131585 0.562618
v 0.247912 -0.337618 0.002618
v 0.069500 -0.337618 0.002619
v -0.052913 -0.337618 0.002619
v -0.231326 -0.337618 0.002619
v -0.231326 -0.337618 0.274062
v -0.052913 -0.337618 0.274062
v 0.069500 -0.337618 0.274062
v 0.247912 -0.337618 0.274062
v -0.231326 -0.337618 0.562619
v -0.052913 -0.337618 0.562619
v 0.069500 -0.337618 0.562618
v 0.247912 -0.337618 0.562618
v -0.052913 -0.257618 0.274062
v -0.231326 -0.257618 0.274062
v -0.231326 -0.257618 0.002619
v -0.052913 -0.257618 0.002619
v 0.247912 -0.257618 0.274062
v 0.069500 -0.257618 0.274062
v 0.069500 -0.257618 0.002618
v 0.247912 -0.257618 0.002618
v -0.130707 0.450778 0.002142
v -0.130707 0.252029 0.002142
v -0.329455 0.252029 0.002142
v -0.329455 0.450778 0.002142
v -0.130707 0.450778 1.200890
v -0.130707 0.252029 1.200890
v -0.329455 0.252029 1.200890
v -0.329455 0.450778 1.200890
v -0.269831 0.391153 1.200890
v -0.269831 0.311654 1.200890
v -0.190331 0.311654 1.200890
v -0.190331 0.391153 1.200890
v -0.190331 0.391153 0.890890
v -0.190331 0.311654 0.890890
v -0.269831 0.311654 0.890890
v -0.269831 0.391153 0.890890
vt 0.243762 0.533206
vt 0.243995 0.457308
vt 0.304877 0.457495
vt 0.244228 0.381411
vt 0.305109 0.381597
vt 0.243995 0.741357
vt 0.305109 0.817068
vt 0.244228 0.817255
vt 0.243762 0.665459
vt 0.304877 0.741170
vt 0.226475 0.629784
vt 0.610051 0.538530
vt 0.610037 0.513250
vt 0.788589 0.538430
vt 0.609936 0.330829
vt 0.609922 0.305550
vt 0.788459 0.305450
vt 0.609999 0.445338
vt 0.609973 0.398742
vt 0.227046 0.382498
vt 0.227189 0.335902
vt 0.226618 0.522285
vt 0.226760 0.475689
vt 0.226903 0.429093
vt 0.662140 0.931072
vt 0.686340 0.931146
vt 0.686266 0.955355
vt 0.662066 0.955281
vt 0.311899 0.892473
vt 0.336100 0.892547
vt 0.335810 0.986948
vt 0.311610 0.986873
vt 0.151947 0.893215
vt 0.176147 0.893289
vt 0.175857 0.987689
vt 0.151657 0.987615
vt 0.200637 0.987615
vt 0.176436 0.987689
vt 0.200347 0.893215
vt 0.118231 0.893215
vt 0.142432 0.893289
vt 0.142142 0.987689
vt 0.117942 0.987615
vt 0.200637 0.953737
vt 0.200822 0.893215
vt 0.218917 0.911427
vt 0.218843 0.935636
vt 0.261138 0.953923
vt 0.243043 0.935710
vt 0.261323 0.893401
vt 0.243117 0.911502
vt 0.911918 0.305450
vt 0.913038 0.670488
vt 0.852537 0.670674
vt 0.851417 0.305636
vt 0.973539 0.305450
vt 0.974658 0.670488
vt 0.914157 0.670674
vt 0.913038 0.305636
vt 0.608802 0.610139
vt 0.609922 0.975178
vt 0.549421 0.975363
vt 0.548301 0.610325
vt 0.850298 0.305450
vt 0.851418 0.670488
vt 0.790917 0.670674
vt 0.789797 0.305636
vt 0.057407 0.893249
vt 0.117908 0.893215
vt 0.117942 0.953737
vt 0.057441 0.953771
vt 0.746777 0.103532
vt 0.678889 0.103324
vt 0.679206 0.000000
vt 0.747094 0.000208
vt 0.686340 0.998769
vt 0.686549 0.930857
vt 0.716990 0.930950
vt 0.716781 0.998862
vt 0.758671 0.998955
vt 0.758633 0.931043
vt 0.789074 0.931026
vt 0.789112 0.998938
vt 0.864996 0.023294
vt 0.864680 0.126618
vt 0.834239 0.126524
vt 0.834556 0.023201
vt 0.925924 0.849507
vt 0.926241 0.952830
vt 0.895800 0.952924
vt 0.895483 0.849600
vt 0.678572 0.103532
vt 0.610684 0.103324
vt 0.611001 0.000000
vt 0.678889 0.000208
vt 0.423153 0.982702
vt 0.423362 0.914790
vt 0.453803 0.914883
vt 0.453594 0.982795
vt 0.727721 0.998955
vt 0.727683 0.931043
vt 0.758124 0.931026
vt 0.758162 0.998938
vt 0.777851 0.000208
vt 0.777535 0.103532
vt 0.747094 0.103439
vt 0.747411 0.000115
vt 0.335783 0.789056
vt 0.336100 0.892380
vt 0.305659 0.892473
vt 0.305342 0.789150
vt 0.226475 0.568881
vt 0.117313 0.360845
vt 0.117390 0.335565
vt 0.117104 0.428757
vt 0.116961 0.475352
vt 0.116753 0.543264
vt 0.116676 0.568544
vt 0.014025 0.360528
vt 0.014103 0.335248
vt 0.013674 0.475035
vt 0.013817 0.428440
vt 0.013389 0.568227
vt 0.013466 0.542947
vt 0.227189 0.862763
vt 0.226381 0.599333
vt 0.304644 0.665272
vt 0.227283 0.893215
vt 0.305342 0.892966
vt 0.305342 0.305700
vt 0.227282 0.305450
vt 0.304644 0.533393
vt 0.548301 0.610379
vt 0.547754 0.788979
vt 0.469694 0.788739
vt 0.470242 0.610139
vt 0.456431 0.967597
vt 0.456332 0.788996
vt 0.486773 0.788979
vt 0.486872 0.967580
vt 0.686340 0.752472
vt 0.685793 0.931072
vt 0.610469 0.752239
vt 0.609922 0.930839
vt 0.789112 0.752426
vt 0.788565 0.931026
vt 0.727683 0.930839
vt 0.728230 0.752239
vt 0.927836 0.670907
vt 0.927288 0.849507
vt 0.851965 0.670674
vt 0.851417 0.849274
vt 0.548301 0.789166
vt 0.547754 0.967766
vt 0.486872 0.967579
vt 0.487420 0.788979
vt 0.866216 0.126850
vt 0.865668 0.305450
vt 0.790345 0.126618
vt 0.789797 0.305217
vt 0.409177 0.789243
vt 0.408629 0.967843
vt 0.347747 0.967656
vt 0.348295 0.789056
vt 0.789558 0.195613
vt 0.611021 0.195064
vt 0.789797 0.117526
vt 0.611260 0.116977
vt 0.116676 0.630121
vt 0.116582 0.599670
vt 0.116582 0.598996
vt 0.789221 0.305450
vt 0.610684 0.304902
vt 0.117390 0.863100
vt 0.788775 0.648915
vt 0.610238 0.648367
vt 0.610575 0.538530
vt 0.789112 0.539078
vt 0.716781 0.752239
vt 0.716881 0.930840
vt 0.686440 0.930857
vt 0.686340 0.752256
vt 0.014103 0.863417
vt 0.013389 0.630438
vt 0.788459 0.752239
vt 0.609922 0.751691
vt 0.305890 0.789056
vt 0.305342 0.610456
vt 0.409177 0.788739
vt 0.408629 0.610139
vt 0.305512 0.610139
vt 0.320724 0.594905
vt 0.427242 0.610120
vt 0.427242 0.594721
vt 0.305342 0.305622
vt 0.320571 0.320839
vt 0.609752 0.305450
vt 0.594540 0.320685
vt 0.609922 0.609969
vt 0.594693 0.594752
vt 0.488090 0.610034
vt 0.488079 0.594748
vt 0.609753 0.000000
vt 0.610684 0.304516
vt 0.305342 0.000934
vt 0.306275 0.305450
vt 0.469694 0.610186
vt 0.469560 0.653894
vt 0.454414 0.610139
vt 0.454278 0.654597
vt 0.305342 0.999866
vt 0.261650 1.000000
vt 0.261323 0.893349
vt 0.305015 0.893215
vt 0.833489 0.944874
vt 0.789797 0.944740
vt 0.790638 0.670674
vt 0.834330 0.670808
vt 0.972369 0.670808
vt 0.971528 0.944873
vt 0.927836 0.944739
vt 0.928677 0.670674
vt 0.999159 0.305450
vt 0.955468 0.305316
vt 0.956308 0.031252
vt 1.000000 0.031386
vt 0.469694 0.698509
vt 0.454301 0.698556
vt 0.469560 0.654801
vt 0.454166 0.654597
vt 0.057080 0.893215
vt 0.057407 0.999770
vt 0.013715 0.999904
vt 0.013389 0.893349
vt 0.790173 0.004741
vt 0.833865 0.004607
vt 0.834239 0.126474
vt 0.789797 0.126618
vt 0.000000 0.000934
vt 0.015267 0.016113
vt 0.000377 0.122801
vt 0.015657 0.122764
vt 0.851417 0.971281
vt 0.851539 0.849507
vt 0.895483 0.849642
vt 0.895109 0.971415
vt 0.000933 0.305450
vt 0.000511 0.183677
vt 0.016107 0.290178
vt 0.015905 0.183622
vt 0.304410 0.000000
vt 0.289237 0.015273
vt 0.305342 0.304516
vt 0.290075 0.289337
vt 0.911776 0.000800
vt 0.955468 0.000934
vt 0.954534 0.305450
vt 0.910842 0.305316
vt 0.410111 0.914790
vt 0.409177 0.610274
vt 0.452869 0.610139
vt 0.453803 0.914656
vt 0.867150 0.000798
vt 0.910842 0.000932
vt 0.909908 0.305450
vt 0.866216 0.305316
vn 0.000000 -1.000000 0.000000
vn 0.000000 1.000000 0.000000
vn -0.000001 0.000000 -1.000000
vn -0.000001 -0.000001 -1.000000
vn 0.000000 0.000000 1.000000
vn -0.000001 -1.000000 0.000000
vn 1.000000 -0.000001 0.000000
vn 0.000001 1.000000 0.000000
vn -1.000000 0.000001 0.000000
vn -1.000000 0.000000 0.000000
vn 1.000000 -0.000000 0.000000
vn 0.000000 0.000000 -1.000000
vn 0.000000 -1.000000 0.000001
vn 0.000001 0.000001 1.000000
vn 1.000000 -0.000000 -0.000001
vn -1.000000 0.000000 0.000001
vn 1.000000 -0.000000 0.000126
vn -0.625854 0.000001 0.779940
vn -0.762877 0.000001 0.646544
vn 0.000000 -0.000001 -1.000000
vn 0.000000 1.000000 -0.000001
vn -0.002067 0.002067 -0.999996
vn -0.000019 0.016353 -0.999866
vn 0.006153 0.006153 -0.999962
vn 0.000029 0.049002 -0.998799
vn -1.000000 -0.000674 0.000000
vn -1.000000 -0.000198 0.000167
vn 0.000590 1.000000 0.000000
vn 0.000008 -1.000000 0.000000
vn 1.000000 0.000001 0.000000
vn 1.000000 -0.000533 0.000000
vn -0.001169 0.999999 0.000000
vn -0.000029 -1.000000 0.000000
vn -0.000399 -1.000000 0.000000
vn -1.000000 -0.000001 0.000000
vn -0.000008 1.000000 0.000000
usemtl (null)
s off
f 48/1/1 52/2/1 50/3/1
f 52/2/1 55/4/1 53/5/1
f 51/6/2 54/7/2 56/8/2
f 47/9/2 49/10/2 51/6/2
f 40/11/2 47/9/2 51/6/2
f 7/12/3 61/13/3 5/14/3
f 64/15/4 8/16/4 6/17/4
f 61/13/3 62/18/3 5/14/3
f 63/19/4 64/15/4 6/17/4
f 72/20/1 41/21/1 55/4/1
f 69/22/1 70/23/1 52/2/1
f 71/24/1 72/20/1 55/4/1
f 93/25/5 96/26/5 95/27/5
f 93/25/5 95/27/5 94/28/5
f 92/29/6 89/30/6 96/31/6
f 92/29/6 96/31/6 93/32/6
f 89/33/7 90/34/7 95/35/7
f 89/33/7 95/35/7 96/36/7
f 90/37/8 91/38/8 94/34/8
f 90/37/8 94/34/8 95/39/8
f 91/40/9 92/41/9 93/42/9
f 91/40/9 93/42/9 94/43/9
f 86/44/5 85/45/5 92/46/5
f 86/44/5 92/46/5 91/47/5
f 87/48/5 86/44/5 91/47/5
f 87/48/5 91/47/5 90/49/5
f 88/50/5 87/48/5 90/49/5
f 88/50/5 90/49/5 89/51/5
f 85/45/5 88/50/5 89/51/5
f 85/45/5 89/51/5 92/46/5
f 84/52/2 88/53/2 85/54/2
f 84/52/2 85/54/2 81/55/2
f 83/56/9 87/57/9 88/58/9
f 83/56/10 88/58/10 84/59/10
f 82/60/6 86/61/6 87/62/6
f 82/60/1 87/62/1 83/63/1
f 81/64/11 85/65/11 86/66/11
f 81/64/11 86/66/11 82/67/11
f 83/68/12 84/69/12 81/70/12
f 83/68/12 81/70/12 82/71/12
f 79/72/13 80/73/13 77/74/13
f 79/72/13 77/74/13 78/75/13
f 62/76/14 61/77/14 80/78/14
f 62/76/14 80/78/14 79/79/14
f 68/80/3 67/81/3 78/82/3
f 68/80/3 78/82/3 77/83/3
f 67/84/15 62/85/15 79/86/15
f 67/84/15 79/86/15 78/87/15
f 61/88/10 68/89/10 77/90/10
f 61/88/10 77/90/10 80/91/10
f 75/92/13 76/93/13 73/94/13
f 75/92/13 73/94/13 74/95/13
f 64/96/14 63/97/14 76/98/14
f 64/96/14 76/98/14 75/99/14
f 66/100/4 65/101/4 74/102/4
f 66/100/4 74/102/4 73/103/4
f 65/104/11 64/105/11 75/106/11
f 65/104/11 75/106/11 74/107/11
f 63/108/16 66/109/16 73/110/16
f 63/108/16 73/110/16 76/111/16
f 39/112/1 69/22/1 48/1/1
f 69/22/1 52/2/1 48/1/1
f 70/23/1 71/24/1 52/2/1
f 71/24/1 55/4/1 52/2/1
f 68/113/1 34/114/1 41/21/1
f 68/113/1 41/21/1 72/20/1
f 67/115/1 68/113/1 72/20/1
f 67/115/1 72/20/1 71/24/1
f 66/116/1 67/115/1 71/24/1
f 66/116/1 71/24/1 70/23/1
f 65/117/1 66/116/1 70/23/1
f 65/117/1 70/23/1 69/22/1
f 33/118/1 65/117/1 69/22/1
f 33/118/1 69/22/1 39/112/1
f 61/119/13 7/120/13 34/114/13
f 61/119/13 34/114/13 68/113/13
f 63/121/13 62/122/13 67/115/13
f 63/121/13 67/115/13 66/116/13
f 8/123/13 64/124/13 65/117/13
f 8/123/13 65/117/13 33/118/13
f 62/18/4 63/19/4 6/17/4
f 62/18/12 6/17/12 5/14/12
f 40/11/2 51/6/2 42/125/2
f 51/6/2 56/8/2 42/125/2
f 40/11/2 43/126/2 47/9/2
f 43/126/2 45/127/2 47/9/2
f 42/125/2 56/8/2 60/128/2
f 56/8/2 57/129/2 60/128/2
f 58/130/1 55/4/1 59/131/1
f 55/4/1 41/21/1 59/131/1
f 39/112/1 48/1/1 44/126/1
f 48/1/1 46/132/1 44/126/1
f 57/133/17 58/134/17 59/135/17
f 57/133/17 59/135/17 60/136/17
f 41/137/12 42/138/12 60/139/12
f 41/137/12 60/139/12 59/140/12
f 56/141/18 55/142/18 57/143/18
f 55/142/18 58/144/18 57/143/18
f 54/145/11 53/146/11 55/147/11
f 54/145/11 55/147/11 56/148/11
f 51/149/18 52/150/18 54/151/18
f 52/150/18 53/152/18 54/151/18
f 49/153/11 50/154/11 52/155/11
f 49/153/11 52/155/11 51/156/11
f 47/157/18 48/158/18 49/159/18
f 48/158/18 50/160/18 49/159/18
f 45/161/11 46/162/11 48/163/11
f 45/161/11 48/163/11 47/164/11
f 43/165/19 44/166/19 45/167/19
f 44/166/19 46/168/19 45/167/19
f 35/169/2 38/170/2 43/126/2
f 35/169/2 43/126/2 40/11/2
f 33/118/1 39/112/1 44/126/1
f 33/118/1 44/126/1 37/171/1
f 38/172/10 37/173/10 43/165/10
f 37/173/10 44/166/10 43/165/10
f 36/174/2 35/169/2 40/11/2
f 36/174/2 40/11/2 42/125/2
f 34/175/11 36/176/11 42/177/11
f 34/175/11 42/177/11 41/178/11
f 35/179/20 33/180/20 37/181/20
f 35/179/20 37/181/20 38/182/20
f 5/183/21 6/184/21 35/169/21
f 5/183/21 35/169/21 36/174/21
f 7/185/15 5/186/15 34/175/15
f 5/186/15 36/176/15 34/175/15
f 6/187/10 8/188/10 35/189/10
f 8/188/16 33/190/16 35/189/16
f 3/191/22 26/192/22 19/193/22
f 26/192/23 24/194/23 19/193/23
f 3/191/12 4/195/12 26/192/12
f 4/195/12 25/196/12 26/192/12
f 1/197/12 28/198/12 4/195/12
f 28/198/12 25/196/12 4/195/12
f 1/197/12 2/199/12 28/198/12
f 2/199/12 27/200/12 28/198/12
f 2/199/24 22/201/24 27/200/24
f 22/201/25 23/202/25 27/200/25
f 32/203/5 29/204/5 31/205/5
f 29/204/5 30/206/5 31/205/5
f 20/207/26 23/208/26 21/209/26
f 23/208/27 22/210/27 21/209/27
f 14/211/28 27/212/28 23/213/28
f 14/211/28 23/213/28 20/214/28
f 13/215/10 28/216/10 27/217/10
f 13/215/10 27/217/10 14/218/10
f 13/219/29 16/220/29 25/221/29
f 13/219/29 25/221/29 28/222/29
f 15/223/30 26/224/30 25/225/30
f 15/223/30 25/225/30 16/226/30
f 17/227/31 18/228/31 24/229/31
f 18/228/31 19/230/31 24/229/31
f 15/231/32 17/232/32 24/233/32
f 15/231/32 24/233/32 26/234/32
f 2/235/33 11/236/33 21/237/33
f 2/235/33 21/237/33 22/238/33
f 11/239/5 14/240/5 21/241/5
f 14/240/5 20/242/5 21/241/5
f 3/243/34 19/244/34 18/245/34
f 3/243/34 18/245/34 10/246/34
f 10/247/5 18/248/5 15/249/5
f 18/248/5 17/250/5 15/249/5
f 11/239/5 12/251/5 13/252/5
f 11/239/5 13/252/5 14/240/5
f 9/253/5 16/254/5 13/252/5
f 9/253/5 13/252/5 12/251/5
f 9/253/5 10/247/5 15/249/5
f 9/253/5 15/249/5 16/254/5
f 3/255/35 10/256/35 9/257/35
f 3/255/35 9/257/35 4/258/35
f 1/259/36 4/260/36 9/261/36
f 1/259/36 9/261/36 12/262/36
f 1/263/11 12/264/11 11/265/11
f 1/263/11 11/265/11 2/266/11
